<svg width="19" height="22" viewBox="0 0 19 22" fill="none" xmlns="http://www.w3.org/2000/svg">
<path d="M17.7182 10.2789L2.72728 1.1114C2.60108 1.03355 2.4564 0.990787 2.30817 0.987508C2.15993 0.98423 2.0135 1.02056 1.88399 1.09275C1.75447 1.16494 1.64656 1.27037 1.57139 1.39817C1.49621 1.52598 1.45649 1.67152 1.45633 1.8198V20.1548C1.45649 20.3031 1.49621 20.4486 1.57139 20.5764C1.64656 20.7042 1.75447 20.8097 1.88399 20.8819C2.0135 20.9541 2.15993 20.9904 2.30817 20.9871C2.4564 20.9838 2.60108 20.9411 2.72728 20.8632L17.7182 11.6957C17.8413 11.6229 17.9433 11.5193 18.0142 11.3951C18.0851 11.2709 18.1223 11.1303 18.1223 10.9873C18.1223 10.8443 18.0851 10.7038 18.0142 10.5795C17.9433 10.4553 17.8413 10.3517 17.7182 10.2789V10.2789Z" stroke="#7B4AE2" stroke-opacity="0.5" stroke-linecap="round" stroke-linejoin="round"/>
</svg>
